<?xml version="1.0" encoding="UTF-8"?>
<svg xmlns="http://www.w3.org/2000/svg" xmlns:xlink="http://www.w3.org/1999/xlink"
     width="1180.0" height="1180.0" viewBox="-590.0 -590.0 1180.0 1180.0">
<defs>
<marker markerWidth="5.0" markerHeight="5.0" viewBox="-1 -5 10 10" orient="auto" id="d0">
<path d="M-1,5 L-1,-5 L9,0 Z" fill="#000000" />
</marker>
<marker markerWidth="5.0" markerHeight="5.0" viewBox="-1 -5 10 10" orient="auto" id="d1">
<path d="M-1,5 L-1,-5 L9,0 Z" fill="#000000" />
</marker>
<marker markerWidth="5.0" markerHeight="5.0" viewBox="-1 -5 10 10" orient="auto" id="d2">
<path d="M-1,5 L-1,-5 L9,0 Z" fill="#000000" />
</marker>
<marker markerWidth="5.0" markerHeight="5.0" viewBox="-1 -5 10 10" orient="auto" id="d3">
<path d="M-1,5 L-1,-5 L9,0 Z" fill="#000000" />
</marker>
<marker markerWidth="5.0" markerHeight="5.0" viewBox="-1 -5 10 10" orient="auto" id="d4">
<path d="M-1,5 L-1,-5 L9,0 Z" fill="#000000" />
</marker>
<marker markerWidth="5.0" markerHeight="5.0" viewBox="-1 -5 10 10" orient="auto" id="d5">
<path d="M-1,5 L-1,-5 L9,0 Z" fill="#000000" />
</marker>
<marker markerWidth="5.0" markerHeight="5.0" viewBox="-1 -5 10 10" orient="auto" id="d6">
<path d="M-1,5 L-1,-5 L9,0 Z" fill="#000000" />
</marker>
<marker markerWidth="5.0" markerHeight="5.0" viewBox="-1 -5 10 10" orient="auto" id="d7">
<path d="M-1,5 L-1,-5 L9,0 Z" fill="#000000" />
</marker>
</defs>
<rect x="-590.0" y="-590.0" width="1180.0" height="1180.0" fill="#ffffff" />
<path d="M-400.0,-400.0 L-80.60000000000001,-400.0" stroke-width="4.0" stroke="#000000" marker-end="url(#d0)" />
<text x="-110.60000000000001" y="-430.0" font-size="46.5" fill="#ff0000" text-anchor="middle" dy="0.4em">4</text>
<path d="M-400.0,-400.0 L-400.0,-80.60000000000001" stroke-width="4.0" stroke="#000000" marker-end="url(#d1)" />
<text x="-430.0" y="-110.60000000000001" font-size="46.5" fill="#ff0000" text-anchor="middle" dy="0.4em">3</text>
<path d="M0.0,-400.0 L0.0,-80.60000000000001" stroke-width="4.0" stroke="#000000" marker-end="url(#d2)" />
<text x="-30.0" y="-110.60000000000001" font-size="46.5" fill="#ff0000" text-anchor="middle" dy="0.4em">4</text>
<path d="M0.0,-400.0 L-343.0071934363643,-56.99280656363573" stroke-width="4.0" stroke="#000000" marker-end="url(#d3)" />
<text x="-351.79399000076785" y="-78.20600999923215" font-size="46.5" fill="#ff0000" text-anchor="middle" dy="0.4em">8</text>
<path d="M400.0,-200.0 L72.09083159459323,-36.04541579729661" stroke-width="4.0" stroke="#000000" marker-end="url(#d4)" />
<text x="68.9236473245907" y="-49.46182366229535" font-size="46.5" fill="#ff0000" text-anchor="middle" dy="0.4em">2</text>
<path d="M0.0,0.0 L-319.4,0.0" stroke-width="4.0" stroke="#000000" marker-end="url(#d5)" />
<text x="-319.4" y="-0.0" font-size="46.5" fill="#ff0000" text-anchor="middle" dy="0.4em">2</text>
<path d="M0.0,0.0 L-163.9545842027034,327.9091684054068" stroke-width="4.0" stroke="#000000" marker-end="url(#d6)" />
<text x="-180.53817633770464" y="301.0763526754093" font-size="46.5" fill="#ff0000" text-anchor="middle" dy="0.4em">7</text>
<path d="M-400.0,0.0 L-236.0454157972966,327.9091684054068" stroke-width="4.0" stroke="#000000" marker-end="url(#d7)" />
<text x="-279.4618236622954" y="301.0763526754093" font-size="46.5" fill="#ff0000" text-anchor="middle" dy="0.4em">343</text>
<circle cx="-400.0" cy="-400.0" r="62" fill="#ffffff" stroke-width="4.0" stroke="#000000" />
<text x="-399.0" y="-405.0" font-size="111.60000000000001" fill="#000000" text-anchor="middle" dy="0.4em">A</text>
<circle cx="0.0" cy="-400.0" r="62" fill="#ffffff" stroke-width="4.0" stroke="#000000" />
<text x="1.0" y="-405.0" font-size="111.60000000000001" fill="#000000" text-anchor="middle" dy="0.4em">B</text>
<circle cx="400.0" cy="-200.0" r="62" fill="#ffffff" stroke-width="4.0" stroke="#000000" />
<text x="401.0" y="-205.0" font-size="111.60000000000001" fill="#000000" text-anchor="middle" dy="0.4em">C</text>
<circle cx="0.0" cy="0.0" r="62" fill="#ffffff" stroke-width="4.0" stroke="#000000" />
<text x="1.0" y="-5.0" font-size="111.60000000000001" fill="#000000" text-anchor="middle" dy="0.4em">D</text>
<circle cx="-400.0" cy="0.0" r="62" fill="#ffffff" stroke-width="4.0" stroke="#000000" />
<text x="-399.0" y="-5.0" font-size="111.60000000000001" fill="#000000" text-anchor="middle" dy="0.4em">E</text>
<circle cx="-200.0" cy="400.0" r="62" fill="#ffffff" stroke-width="4.0" stroke="#000000" />
<text x="-199.0" y="395.0" font-size="111.60000000000001" fill="#000000" text-anchor="middle" dy="0.4em">F</text>
</svg>