<?xml version="1.0" encoding="UTF-8"?>
<svg xmlns="http://www.w3.org/2000/svg" xmlns:xlink="http://www.w3.org/1999/xlink"
     width="1010" height="601" viewBox="-505.0 -300.5 1010 601">
<defs>
</defs>
<rect x="-505.0" y="-300.5" width="1010" height="601" fill="#ffffff" />
<path d="M-409.0,-204.5 L0.0,-204.5" stroke-width="4" stroke="#000000" />
<text x="-204" y="-234" font-size="48.0" fill="#ff0000" text-anchor="middle" dy="0.4em">4</text>
<path d="M-409.0,-204.5 L-409.0,204.5" stroke-width="4" stroke="#000000" />
<text x="-439" y="0" font-size="48.0" fill="#ff0000" text-anchor="middle" dy="0.4em">3</text>
<path d="M0.0,-204.5 L409.0,-0.5" stroke-width="4" stroke="#000000" />
<text x="204" y="-132" font-size="48.0" fill="#ff0000" text-anchor="middle" dy="0.4em">6</text>
<path d="M0.0,-204.5 L0.0,204.5" stroke-width="4" stroke="#000000" />
<text x="-30" y="0" font-size="48.0" fill="#ff0000" text-anchor="middle" dy="0.4em">4</text>
<path d="M0.0,-204.5 L-409.0,204.5" stroke-width="4" stroke="#000000" />
<text x="-234" y="0" font-size="48.0" fill="#ff0000" text-anchor="middle" dy="0.4em">8</text>
<path d="M409.0,-0.5 L0.0,204.5" stroke-width="4" stroke="#000000" />
<text x="174" y="102" font-size="48.0" fill="#ff0000" text-anchor="middle" dy="0.4em">2</text>
<path d="M0.0,204.5 L-409.0,204.5" stroke-width="4" stroke="#000000" />
<text x="-234" y="204" font-size="48.0" fill="#ff0000" text-anchor="middle" dy="0.4em">2</text>
<circle cx="-409.0" cy="-204.5" r="64" fill="#ffffff" stroke-width="4" stroke="#000000" />
<text x="-408.0" y="-209.5" font-size="128" fill="#000000" text-anchor="middle" dy="0.4em">0</text>
<circle cx="0.0" cy="-204.5" r="64" fill="#ffffff" stroke-width="4" stroke="#000000" />
<text x="1.0" y="-209.5" font-size="128" fill="#000000" text-anchor="middle" dy="0.4em">1</text>
<circle cx="409.0" cy="-0.5" r="64" fill="#ffffff" stroke-width="4" stroke="#000000" />
<text x="410.0" y="-5.5" font-size="128" fill="#000000" text-anchor="middle" dy="0.4em">2</text>
<circle cx="0.0" cy="204.5" r="64" fill="#ffffff" stroke-width="4" stroke="#000000" />
<text x="1.0" y="199.5" font-size="128" fill="#000000" text-anchor="middle" dy="0.4em">3</text>
<circle cx="-409.0" cy="204.5" r="64" fill="#ffffff" stroke-width="4" stroke="#000000" />
<text x="-408.0" y="199.5" font-size="128" fill="#000000" text-anchor="middle" dy="0.4em">4</text>
</svg>