<?xml version="1.0" encoding="UTF-8"?>
<svg xmlns="http://www.w3.org/2000/svg" xmlns:xlink="http://www.w3.org/1999/xlink"
     width="988" height="588" viewBox="-494.0 -294.0 988 588">
<defs>
</defs>
<rect x="-494.0" y="-294.0" width="988" height="588" fill="#ffffff" />
<path d="M-400.0,-200.0 L0.0,-200.0" stroke-width="4" stroke="#000000" />
<text x="-200" y="-230" font-size="46.5" fill="#ff0000" text-anchor="middle" dy="0.4em">4</text>
<path d="M-400.0,-200.0 L-400.0,200.0" stroke-width="4" stroke="#000000" />
<text x="-430" y="0" font-size="46.5" fill="#ff0000" text-anchor="middle" dy="0.4em">3</text>
<path d="M0.0,-200.0 L400.0,0.0" stroke-width="4" stroke="#000000" />
<text x="200" y="-130" font-size="46.5" fill="#ff0000" text-anchor="middle" dy="0.4em">6</text>
<path d="M0.0,-200.0 L0.0,200.0" stroke-width="4" stroke="#000000" />
<text x="-30" y="0" font-size="46.5" fill="#ff0000" text-anchor="middle" dy="0.4em">4</text>
<path d="M0.0,-200.0 L-400.0,200.0" stroke-width="4" stroke="#000000" />
<text x="-230" y="0" font-size="46.5" fill="#ff0000" text-anchor="middle" dy="0.4em">8</text>
<path d="M400.0,0.0 L0.0,200.0" stroke-width="4" stroke="#000000" />
<text x="170" y="100" font-size="46.5" fill="#ff0000" text-anchor="middle" dy="0.4em">2</text>
<path d="M0.0,200.0 L-400.0,200.0" stroke-width="4" stroke="#000000" />
<text x="-230" y="200" font-size="46.5" fill="#ff0000" text-anchor="middle" dy="0.4em">2</text>
<circle cx="-400.0" cy="-200.0" r="62" fill="#ffffff" stroke-width="4" stroke="#000000" />
<text x="-399.0" y="-205.0" font-size="111.60000000000001" fill="#000000" text-anchor="middle" dy="0.4em">A</text>
<circle cx="0.0" cy="-200.0" r="62" fill="#ffffff" stroke-width="4" stroke="#000000" />
<text x="1.0" y="-205.0" font-size="111.60000000000001" fill="#000000" text-anchor="middle" dy="0.4em">B</text>
<circle cx="400.0" cy="0.0" r="62" fill="#ffffff" stroke-width="4" stroke="#000000" />
<text x="401.0" y="-5.0" font-size="111.60000000000001" fill="#000000" text-anchor="middle" dy="0.4em">C</text>
<circle cx="0.0" cy="200.0" r="62" fill="#ffffff" stroke-width="4" stroke="#000000" />
<text x="1.0" y="195.0" font-size="111.60000000000001" fill="#000000" text-anchor="middle" dy="0.4em">D</text>
<circle cx="-400.0" cy="200.0" r="62" fill="#ffffff" stroke-width="4" stroke="#000000" />
<text x="-399.0" y="195.0" font-size="111.60000000000001" fill="#000000" text-anchor="middle" dy="0.4em">E</text>
</svg>