<?xml version="1.0" encoding="UTF-8"?>
<svg xmlns="http://www.w3.org/2000/svg" xmlns:xlink="http://www.w3.org/1999/xlink"
     width="2393.0" height="2393.0" viewBox="-1196.5 -1196.5 2393.0 2393.0">
<defs>
</defs>
<rect x="-1196.5" y="-1196.5" width="2393.0" height="2393.0" fill="#ffffff" />
<path d="M-0.5,1149.5 L-1149.5,-1149.5" stroke-width="1.0" stroke="#000000" />
<path d="M-0.5,1149.5 L1149.5,-1149.5" stroke-width="1.0" stroke="#000000" />
<path d="M-1149.5,-1149.5 L1149.5,-1149.5" stroke-width="1.0" stroke="#000000" />
<path d="M-1149.5,-1149.5 L312.5,-1029.5" stroke-width="1.0" stroke="#000000" />
<path d="M1149.5,-1149.5 L312.5,-1029.5" stroke-width="1.0" stroke="#000000" />
<path d="M-1149.5,-1149.5 L38.5,-1049.5" stroke-width="1.0" stroke="#000000" />
<path d="M312.5,-1029.5 L38.5,-1049.5" stroke-width="1.0" stroke="#000000" />
<path d="M-0.5,1149.5 L343.5,-287.5" stroke-width="1.0" stroke="#000000" />
<path d="M1149.5,-1149.5 L343.5,-287.5" stroke-width="1.0" stroke="#000000" />
<path d="M312.5,-1029.5 L343.5,-287.5" stroke-width="1.0" stroke="#000000" />
<path d="M-1149.5,-1149.5 L343.5,-287.5" stroke-width="1.0" stroke="#000000" />
<path d="M38.5,-1049.5 L343.5,-287.5" stroke-width="1.0" stroke="#000000" />
<circle cx="312.5" cy="-1029.5" r="15" fill="#ffffff" stroke-width="1.0" stroke="#000000" />
<text x="313.5" y="-1034.5" font-size="27.0" fill="#000000" text-anchor="middle" dy="0.4em">A</text>
<circle cx="38.5" cy="-1049.5" r="15" fill="#ffffff" stroke-width="1.0" stroke="#000000" />
<text x="39.5" y="-1054.5" font-size="27.0" fill="#000000" text-anchor="middle" dy="0.4em">B</text>
<circle cx="343.5" cy="-287.5" r="15" fill="#ffffff" stroke-width="1.0" stroke="#000000" />
<text x="344.5" y="-292.5" font-size="27.0" fill="#000000" text-anchor="middle" dy="0.4em">C</text>
<circle cx="294.5" cy="-568.5" r="15" fill="#ffffff" stroke-width="1.0" stroke="#000000" />
<text x="295.5" y="-573.5" font-size="27.0" fill="#000000" text-anchor="middle" dy="0.4em">D</text>
<circle cx="-50.5" cy="-100.5" r="15" fill="#ffffff" stroke-width="1.0" stroke="#000000" />
<text x="-49.5" y="-105.5" font-size="27.0" fill="#000000" text-anchor="middle" dy="0.4em">E</text>
<circle cx="176.5" cy="-332.5" r="15" fill="#ffffff" stroke-width="1.0" stroke="#000000" />
<text x="177.5" y="-337.5" font-size="27.0" fill="#000000" text-anchor="middle" dy="0.4em">F</text>
<circle cx="-344.5" cy="-635.5" r="15" fill="#ffffff" stroke-width="1.0" stroke="#000000" />
<text x="-343.5" y="-640.5" font-size="27.0" fill="#000000" text-anchor="middle" dy="0.4em">G</text>
<circle cx="-213.5" cy="-810.5" r="15" fill="#ffffff" stroke-width="1.0" stroke="#000000" />
<text x="-212.5" y="-815.5" font-size="27.0" fill="#000000" text-anchor="middle" dy="0.4em">H</text>
<circle cx="-0.5" cy="1149.5" r="15" fill="#ffffff" stroke-width="1.0" stroke="#000000" />
<text x="0.5" y="1144.5" font-size="27.0" fill="#000000" text-anchor="middle" dy="0.4em">Q</text>
<circle cx="-1149.5" cy="-1149.5" r="15" fill="#ffffff" stroke-width="1.0" stroke="#000000" />
<text x="-1148.5" y="-1154.5" font-size="27.0" fill="#000000" text-anchor="middle" dy="0.4em">R</text>
<circle cx="1149.5" cy="-1149.5" r="15" fill="#ffffff" stroke-width="1.0" stroke="#000000" />
<text x="1150.5" y="-1154.5" font-size="27.0" fill="#000000" text-anchor="middle" dy="0.4em">S</text>
</svg>