<?xml version="1.0" encoding="UTF-8"?>
<svg xmlns="http://www.w3.org/2000/svg" xmlns:xlink="http://www.w3.org/1999/xlink"
     width="4788.0" height="4788.0" viewBox="-2394.0 -2394.0 4788.0 4788.0">
<defs>
</defs>
<rect x="-2394.0" y="-2394.0" width="4788.0" height="4788.0" fill="#ffffff" />
<path d="M0.0,2299.0 L-2299.0,-2299.0" stroke-width="2.0" stroke="#000000" />
<path d="M0.0,2299.0 L2299.0,-2299.0" stroke-width="2.0" stroke="#000000" />
<path d="M-2299.0,-2299.0 L2299.0,-2299.0" stroke-width="2.0" stroke="#000000" />
<circle cx="625.0" cy="-2058.0" r="31" fill="#ffffff" stroke-width="2.0" stroke="#000000" />
<text x="626.0" y="-2063.0" font-size="55.800000000000004" fill="#000000" text-anchor="middle" dy="0.4em">A</text>
<circle cx="78.0" cy="-2099.0" r="31" fill="#ffffff" stroke-width="2.0" stroke="#000000" />
<text x="79.0" y="-2104.0" font-size="55.800000000000004" fill="#000000" text-anchor="middle" dy="0.4em">B</text>
<circle cx="688.0" cy="-574.0" r="31" fill="#ffffff" stroke-width="2.0" stroke="#000000" />
<text x="689.0" y="-579.0" font-size="55.800000000000004" fill="#000000" text-anchor="middle" dy="0.4em">C</text>
<circle cx="589.0" cy="-1136.0" r="31" fill="#ffffff" stroke-width="2.0" stroke="#000000" />
<text x="590.0" y="-1141.0" font-size="55.800000000000004" fill="#000000" text-anchor="middle" dy="0.4em">D</text>
<circle cx="-100.0" cy="-200.0" r="31" fill="#ffffff" stroke-width="2.0" stroke="#000000" />
<text x="-99.0" y="-205.0" font-size="55.800000000000004" fill="#000000" text-anchor="middle" dy="0.4em">E</text>
<circle cx="354.0" cy="-664.0" r="31" fill="#ffffff" stroke-width="2.0" stroke="#000000" />
<text x="355.0" y="-669.0" font-size="55.800000000000004" fill="#000000" text-anchor="middle" dy="0.4em">F</text>
<circle cx="-688.0" cy="-1271.0" r="31" fill="#ffffff" stroke-width="2.0" stroke="#000000" />
<text x="-687.0" y="-1276.0" font-size="55.800000000000004" fill="#000000" text-anchor="middle" dy="0.4em">G</text>
<circle cx="-427.0" cy="-1620.0" r="31" fill="#ffffff" stroke-width="2.0" stroke="#000000" />
<text x="-426.0" y="-1625.0" font-size="55.800000000000004" fill="#000000" text-anchor="middle" dy="0.4em">H</text>
<circle cx="0.0" cy="2299.0" r="31" fill="#ffffff" stroke-width="2.0" stroke="#000000" />
<text x="1.0" y="2294.0" font-size="55.800000000000004" fill="#000000" text-anchor="middle" dy="0.4em">Q</text>
<circle cx="-2299.0" cy="-2299.0" r="31" fill="#ffffff" stroke-width="2.0" stroke="#000000" />
<text x="-2298.0" y="-2304.0" font-size="55.800000000000004" fill="#000000" text-anchor="middle" dy="0.4em">R</text>
<circle cx="2299.0" cy="-2299.0" r="31" fill="#ffffff" stroke-width="2.0" stroke="#000000" />
<text x="2300.0" y="-2304.0" font-size="55.800000000000004" fill="#000000" text-anchor="middle" dy="0.4em">S</text>
</svg>